<?xml version="1.0" encoding="UTF-8"?>
<svg id="Ebene_2" data-name="Ebene 2" xmlns="http://www.w3.org/2000/svg" viewBox="0 0 33 50">
  <defs>
    <style>
      .cls-1 {
        fill: #ff6417;
      }

      .cls-1, .cls-2 {
        stroke-width: 0px;
      }

      .cls-2 {
        fill: #fff;
      }
    </style>
  </defs>
  <g id="Danger">
    <g>
      <path class="cls-1" d="M33,16.56C33,7.41,25.61,0,16.5,0S0,7.41,0,16.56s9.21,17.61,11.57,21.58c3.51,5.82,3.27,9.98,3.74,11.11.37.88,1.84,1.11,2.38,0,.4-.83.22-5.41,3.6-11.11,2.33-3.93,11.71-12.88,11.71-21.58"/>
      <g>
        <circle class="cls-2" cx="16.5" cy="27.53" r="2.71"/>
        <path class="cls-2" d="M19.72,8.45c0,.12,0,.24-.02.37l-1.38,12.06c-.11.93-.89,1.62-1.82,1.62s-1.71-.7-1.82-1.62l-1.38-12.06c-.22-1.91,1.28-3.58,3.2-3.58,1.8,0,3.22,1.46,3.22,3.21Z"/>
      </g>
    </g>
  </g>
</svg>