<?xml version="1.0" encoding="UTF-8"?>
<svg id="Ebene_2" data-name="Ebene 2" xmlns="http://www.w3.org/2000/svg" viewBox="0 0 33 50">
  <defs>
    <style>
      .cls-1 {
        fill: #3fcde0;
      }

      .cls-1, .cls-2 {
        stroke-width: 0px;
      }

      .cls-2 {
        fill: #fff;
      }
    </style>
  </defs>
  <g id="Direction">
    <g>
      <path class="cls-1" d="M33,16.56C33,7.41,25.61,0,16.5,0S0,7.41,0,16.56s9.21,17.61,11.57,21.58c3.51,5.82,3.27,9.98,3.74,11.11.37.88,1.84,1.11,2.38,0,.4-.83.22-5.41,3.6-11.11,2.33-3.93,11.71-12.88,11.71-21.58"/>
      <path class="cls-2" d="M17.59,8.89s-.04-.03-.06-.05c-.02-.02-.05-.04-.07-.05-.03-.02-.05-.03-.08-.05-.02-.01-.04-.03-.07-.04-.03-.01-.05-.03-.08-.04-.02-.01-.05-.02-.07-.03-.03-.01-.05-.02-.08-.03-.03,0-.05-.02-.08-.03-.03,0-.06-.01-.09-.02-.03,0-.05-.01-.08-.02-.03,0-.07-.01-.1-.02-.02,0-.04,0-.06,0-.11-.01-.23-.01-.34,0-.02,0-.04,0-.06,0-.03,0-.07,0-.1.02-.03,0-.05.01-.08.02-.03,0-.06.01-.09.02-.03,0-.05.02-.08.03-.03,0-.05.02-.08.03-.02.01-.05.02-.07.03-.03.01-.05.02-.08.04-.02.01-.04.03-.07.04-.03.02-.05.03-.08.05-.02.02-.05.04-.07.05-.02.02-.04.03-.06.05-.04.04-.09.07-.13.11l-5.47,5.47c-.67.67-.67,1.76,0,2.43.67.67,1.76.67,2.43,0l2.53-2.53v11.41c0,.95.77,1.72,1.72,1.72s1.72-.77,1.72-1.72v-11.41s2.53,2.53,2.53,2.53c.67.67,1.76.67,2.43,0,.34-.34.5-.78.5-1.22s-.17-.88-.5-1.22l-5.47-5.47s-.08-.08-.13-.11Z"/>
    </g>
  </g>
</svg>