<?xml version="1.0" encoding="UTF-8"?>
<svg id="Ebene_2" data-name="Ebene 2" xmlns="http://www.w3.org/2000/svg" viewBox="0 0 33 50">
  <defs>
    <style>
      .cls-1 {
        fill: #207d82;
      }

      .cls-1, .cls-2 {
        stroke-width: 0px;
      }

      .cls-2 {
        fill: #fff;
      }
    </style>
  </defs>
  <g id="Valley">
    <g>
      <path class="cls-1" d="M33,16.56C33,7.41,25.61,0,16.5,0S0,7.41,0,16.56s9.21,17.61,11.57,21.58c3.51,5.82,3.27,9.98,3.74,11.11.37.88,1.84,1.11,2.38,0,.4-.83.22-5.41,3.6-11.11,2.33-3.93,11.71-12.88,11.71-21.58"/>
      <path class="cls-2" d="M17.8,28.72c2.27-1.13,4.35-2.16,7.19-2.79.84-.73,1.6-1.56,2.23-2.49-6.27.73-8.99,3.06-14.21,5.17.63.18,1.27.31,1.94.39h2.24c.21-.1.41-.18.61-.28M14.46,22.02c3.62-1.8,7.71-3.81,14.9-4.15.08-.58.14-1.17.14-1.77,0-.11-.01-.22-.02-.33-7.8.33-12.28,2.57-15.95,4.39-2.64,1.31-4.73,2.35-8.06,2.8.41.67.89,1.29,1.41,1.87,3.08-.58,5.22-1.63,7.57-2.8M20.75,10.14c-.21-5.63-8.3-5.63-8.5,0,0,2.35,1.9,4.25,4.25,4.25s4.25-1.9,4.25-4.25M14.41,17.88c-2.61-.98-6.06-1.91-10.89-2.11,0,.11-.02.22-.02.34,0,1.88.41,3.66,1.13,5.28,3.43-.36,5.43-1.35,8.16-2.71.52-.26,1.06-.53,1.62-.8M28.23,21.67c.32-.67.59-1.38.79-2.11-6.6.39-10.42,2.26-13.82,3.96-2.18,1.08-4.18,2.08-6.84,2.72.72.58,1.5,1.07,2.33,1.49,6-1.92,9-5.36,17.54-6.05"/>
    </g>
  </g>
</svg>