<?xml version="1.0" encoding="UTF-8"?>
<svg id="Ebene_2" data-name="Ebene 2" xmlns="http://www.w3.org/2000/svg" viewBox="0 0 33 50">
  <defs>
    <style>
      .cls-1 {
        fill: #06d6a0;
      }

      .cls-1, .cls-2 {
        stroke-width: 0px;
      }

      .cls-2 {
        fill: #fff;
      }
    </style>
  </defs>
  <g id="Food">
    <g>
      <path class="cls-1" d="M33,16.56C33,7.41,25.61,0,16.5,0S0,7.41,0,16.56s9.21,17.61,11.57,21.58c3.51,5.82,3.27,9.98,3.74,11.11.37.88,1.84,1.11,2.38,0,.4-.83.22-5.41,3.6-11.11,2.33-3.93,11.71-12.88,11.71-21.58"/>
      <g>
        <path class="cls-2" d="M15.8,7.68c-.38,0-.69.31-.69.7h0v5.6c0,.39-.31.7-.7.7s-.7-.31-.7-.7v-5.6h0c0-.39-.31-.7-.69-.7s-.69.31-.69.7h0v5.6c0,.39-.31.7-.7.7s-.7-.31-.7-.7v-5.6c0-.39-.31-.7-.69-.7s-.69.31-.69.7h-.01v7c0,.86.86,1.6,2.1,1.93v8.58c0,.77.63,1.4,1.4,1.4s1.4-.63,1.4-1.4v-8.58c1.24-.32,2.1-1.06,2.1-1.93v-7h0c0-.39-.31-.7-.69-.7Z"/>
        <path class="cls-2" d="M23.15,7.68c-2.51,0-4.55,4.39-4.55,9.8,0,.48.02.94.05,1.4h2.05v7c0,.77.63,1.4,1.4,1.4s1.4-.63,1.4-1.4V7.71c-.12-.02-.23-.03-.35-.03"/>
      </g>
    </g>
  </g>
</svg>