<?xml version="1.0" encoding="UTF-8"?>
<svg id="Ebene_2" data-name="Ebene 2" xmlns="http://www.w3.org/2000/svg" viewBox="0 0 33 50">
  <defs>
    <style>
      .cls-1 {
        fill: #ffa400;
      }

      .cls-1, .cls-2 {
        stroke-width: 0px;
      }

      .cls-2 {
        fill: #fff;
      }
    </style>
  </defs>
  <g id="Residence">
    <g>
      <path class="cls-1" d="M33,16.56C33,7.41,25.61,0,16.5,0S0,7.41,0,16.56s9.21,17.61,11.57,21.58c3.51,5.82,3.27,9.98,3.74,11.11.37.88,1.84,1.11,2.38,0,.4-.83.22-5.41,3.6-11.11,2.33-3.93,11.71-12.88,11.71-21.58"/>
      <g id="Layer_2" data-name="Layer 2">
        <g id="hotel">
          <path class="cls-2" d="M27,15.73v6.21c0,.4-.2.6-.59.6h-.91c-.38,0-.59-.21-.59-.6v-1.49H8.1v1.53c0,.33-.21.55-.54.55-.34,0-.68,0-1.02,0-.32,0-.53-.22-.55-.54v-11.5c0-.34.22-.55.55-.56.32,0,.65,0,.98,0,.37,0,.57.21.57.58v6.76h7.35v-4.6c0-.45.2-.64.64-.64h7.2c1.94,0,3.48,1.38,3.7,3.3.02.13.02.26.02.39h0Z"/>
          <path class="cls-2" d="M11.78,10.99c1.45,0,2.63,1.18,2.62,2.63s-1.18,2.63-2.63,2.62c-1.45,0-2.62-1.18-2.62-2.63s1.17-2.62,2.63-2.62Z"/>
        </g>
      </g>
    </g>
  </g>
</svg>