<?xml version="1.0" encoding="UTF-8"?>
<svg id="Ebene_2" data-name="Ebene 2" xmlns="http://www.w3.org/2000/svg" viewBox="0 0 33 50">
  <defs>
    <style>
      .cls-1 {
        fill: #064789;
      }

      .cls-1, .cls-2 {
        stroke-width: 0px;
      }

      .cls-2 {
        fill: #fff;
      }
    </style>
  </defs>
  <g id="Sprint">
    <g>
      <path class="cls-1" d="M33,16.56C33,7.41,25.61,0,16.5,0S0,7.41,0,16.56s9.21,17.61,11.57,21.58c3.51,5.82,3.27,9.98,3.74,11.11.37.88,1.84,1.11,2.38,0,.4-.83.22-5.41,3.6-11.11,2.33-3.93,11.71-12.88,11.71-21.58"/>
      <g>
        <path class="cls-2" d="M21.75,13.68l2.68-3.69c.11-.16.07-.39-.09-.5-.06-.04-.13-.06-.2-.07h-10.28v8.51h10.28c.2,0,.36-.17.35-.36,0-.07-.02-.14-.07-.2l-2.68-3.69Z"/>
        <path class="cls-2" d="M11.55,8.02c-.58,0-1.05.47-1.05,1.05v17.64c0,.59.49,1.06,1.08,1.05.58,0,1.05-.47,1.05-1.05V9.07c0-.59-.49-1.06-1.08-1.05Z"/>
      </g>
    </g>
  </g>
</svg>