<?xml version="1.0" encoding="UTF-8"?>
<svg id="Ebene_2" data-name="Ebene 2" xmlns="http://www.w3.org/2000/svg" viewBox="0 0 33 50">
  <defs>
    <style>
      .cls-1 {
        fill: #ff3e3e;
      }

      .cls-1, .cls-2 {
        stroke-width: 0px;
      }

      .cls-2 {
        fill: #fff;
      }
    </style>
  </defs>
  <g id="Summit">
    <g>
      <path class="cls-1" d="M33,16.56C33,7.41,25.61,0,16.5,0S0,7.41,0,16.56s9.21,17.61,11.57,21.58c3.51,5.82,3.27,9.98,3.74,11.11.37.88,1.84,1.11,2.38,0,.4-.83.22-5.41,3.6-11.11,2.33-3.93,11.71-12.88,11.71-21.58"/>
      <path class="cls-2" d="M20.24,10.1l-3.97,6.99c-.12.21-.33.32-.55.32-.11,0-.21-.03-.31-.09-.3-.18-.41-.57-.23-.87l2.93-5.16-2.92-4.98-9.19,15.69h21l-6.76-11.9Z"/>
    </g>
  </g>
</svg>