<?xml version="1.0" encoding="UTF-8"?>
<svg id="Ebene_2" data-name="Ebene 2" xmlns="http://www.w3.org/2000/svg" viewBox="0 0 33 50">
  <defs>
    <style>
      .cls-1 {
        fill: #0064e6;
      }

      .cls-1, .cls-2 {
        stroke-width: 0px;
      }

      .cls-2 {
        fill: #fff;
      }
    </style>
  </defs>
  <g id="Water">
    <g>
      <path class="cls-1" d="M33,16.56C33,7.41,25.61,0,16.5,0S0,7.41,0,16.56s9.21,17.61,11.57,21.58c3.51,5.82,3.27,9.98,3.74,11.11.37.88,1.84,1.11,2.38,0,.4-.83.22-5.41,3.6-11.11,2.33-3.93,11.71-12.88,11.71-21.58"/>
      <g>
        <path class="cls-2" d="M14.5,11.54c-1.4-2.3-3-4.3-3-4.3,0,0-5,6.2-5,9,0,2.4,1.7,4.5,4,4.9v-.7c0-2.4,2-6,4-8.9Z"/>
        <path class="cls-2" d="M19.5,8.24s-7,8.5-7,12.2,3.1,6.8,7,6.8,7-3,7-6.8-7-12.2-7-12.2Z"/>
      </g>
    </g>
  </g>
</svg>