<?xml version="1.0" encoding="UTF-8"?>
<svg id="Ebene_2" data-name="Ebene 2" xmlns="http://www.w3.org/2000/svg" viewBox="0 0 45.67 45.67">
  <defs>
    <style>
      .cls-1 {
        fill: #06d26a;
        stroke-width: 0px;
      }
    </style>
  </defs>
  <g id="Logo">
    <g>
      <path class="cls-1" d="M10.12,25.63C4.59,25.63.1,30.12.1,35.65s4.49,10.02,10.02,10.02,10.02-4.49,10.02-10.02-4.49-10.02-10.02-10.02ZM10.12,41.11c-3.01,0-5.47-2.45-5.47-5.47s2.45-5.47,5.47-5.47,5.47,2.45,5.47,5.47-2.45,5.47-5.47,5.47Z"/>
      <path class="cls-1" d="M32.1,9c-3.26,0-5.91,2.65-5.91,5.91s2.65,5.91,5.91,5.91,5.91-2.65,5.91-5.91-2.65-5.91-5.91-5.91ZM32.1,18.13c-1.78,0-3.22-1.45-3.22-3.22s1.45-3.22,3.22-3.22,3.22,1.45,3.22,3.22-1.45,3.22-3.22,3.22Z"/>
      <path class="cls-1" d="M35.82,0H9.85C4.41,0,0,4.41,0,9.85v14.72c2.67-2.45,6.22-3.95,10.12-3.95,8.3,0,15.03,6.75,15.03,15.09,0,3.41-1.58,6.86-3.55,9.97h14.23c5.44,0,9.85-4.41,9.85-9.85V9.85c0-5.44-4.41-9.85-9.85-9.85ZM34.67,26.54c-1.82,3.06-1.72,5.53-1.93,5.97-.29.6-1.08.47-1.28,0-.25-.61-.12-2.84-2.01-5.97-1.26-2.13-6.21-6.92-6.21-11.59,0-4.91,3.97-8.9,8.86-8.9s8.86,3.98,8.86,8.9-5.04,9.48-6.29,11.59Z"/>
    </g>
  </g>
</svg>